<?xml version="1.0" encoding="UTF-8"?>
<svg id="Calque_1" data-name="Calque 1" xmlns="http://www.w3.org/2000/svg" viewBox="0 0 862.17 1024">

  <!-- ============================================================
       Animations CSS embarquées — fonctionnent même via <img src>
       ============================================================ -->
  <defs>
    <style>
      /* Clignement des yeux — toutes les 4.5s, fermeture rapide */
      /* transform-box: fill-box → le transform-origin est relatif à la bbox de l'élément */
      #owl-eye-left {
        transform-box: fill-box;
        transform-origin: center;
        animation: owl-blink 4.5s ease-in-out infinite;
      }
      #owl-eye-right {
        transform-box: fill-box;
        transform-origin: center;
        /* Léger décalage pour un clignotement naturel (pas parfaitement synchronisé) */
        animation: owl-blink 4.5s ease-in-out infinite 0.06s;
      }

      /* Reflet brillant dans l'oeil gauche */
      #owl-shine-left {
        transform-box: fill-box;
        transform-origin: center;
        animation: owl-shine 4.5s ease-in-out infinite;
      }
      /* Reflet brillant dans l'oeil droit */
      #owl-shine-right {
        transform-box: fill-box;
        transform-origin: center;
        animation: owl-shine 4.5s ease-in-out infinite 0.06s;
      }

      /* Fermeture : scaleY → 0.04 (quasi fermé), puis réouverture */
      @keyframes owl-blink {
        0%,  88%, 100% { transform: scaleY(1); }
        91%, 93%       { transform: scaleY(0.04); }
      }

      /* Le reflet disparaît quand l'oeil se ferme, réapparaît quand il s'ouvre */
      @keyframes owl-shine {
        0%,  88%, 100% { opacity: 1; }
        91%, 93%       { opacity: 0; }
      }
    </style>
  </defs>

  <path d="M859.52,391.16c1.43-8.31-1.59-15.69-4.23-23.48,5.5,6.47,9.24,15.85,4.23,23.48Z" style="fill: #31334a;"/>
  <path d="M836.05,338.59c-2.27-4.52-.93-8.42-2.04-13.14,5.38,1.98,5.48,14.29,2.04,13.14Z" style="fill: #31334a;"/>
  <path d="M827.84,503.38c2.81-5.18,8.24-8.78,8.55-14.92.4,3.44,4.15,5.65.16,9.73-2.62,2.68-5.41,3.92-8.71,5.19Z" style="fill: #37374f;"/>
  <g>
    <path d="M163.9,40.19c4.2,3.3,7.89,4.38,12.71,6.42,57.37,24.35,46.6,11.96,66.29,5.91,33.97-10.43,67.7-22.11,103.1-26.93,28.59-3.89,57.92-5.8,86.77-6.22,28.12-.42,56.48,3.25,84.36,6.37,17.26,1.93,34.45,7.02,52.31,10.7,24.14,4.97,46.4,12.9,69.09,22.18,8.99,3.68,17.46-1.29,25.86-3.95,22-6.97,42.55-16.12,61.51-29.46l28.6-20.11c5.8-4.08,11.11-6.28,18.66-4.48,17.26,4.12,19.18,45.28,18.01,58.52-.5,5.66-.57,10.28,5.77,12.63,30.25,11.22,4.4,59.36-10.99,78.71-4.5,5.66-9.78,9.67-12.72,16.53,26.23,40.17,40.87,71.83,54.13,116.26,4.03,13.51,3.43,28.44,6.65,42.15,1.11,4.72-.24,8.63,2.04,13.14,2.18,4.32,2.53,9.41,6.9,14.56l12.34,14.53c2.64,7.79,5.66,15.17,4.23,23.48-3.12,4.74-7.12,8.95-12.32,13.23l13.02,26.57c8.81,17.99-14.8,24.72-21.71,29.69-1.64-.43-4.84,1.13-5.58,2.61-.59,1.17-1.44,4.19-.48,5.82,3.92,6.7,3.22,13.08,3.95,19.39-.31,6.13-5.74,9.74-8.55,14.92l-26.88,10.39c-12.96,15.88-26.46,29.9-43.06,42.25-2.08,1.55-4.21,3.45-4.06,5.3.13,1.61.55,3.8,2.15,5.66,29.63,34.38,49.57,74.56,61.22,117.76,6.29,23.34,8.04,48.11,8.8,72.1.35,11.05-1.06,26.47-6.07,36.52-5.02,10.08-4.52,16.84-6.15,26.22-2.69,15.52-12.28,51.91-33.23,54.5-11.05,1.37-21.11-2.97-31.24-8.31l-16.17,24.28c-14.92,22.39-40.01,35.72-66.24,45.93l8.9,19.79c5.32,11.83,1.13,26.03-3.58,38.03-3.48,8.88-11.69,9.38-16.24,14.51-7.17,1.3-14.08-1.37-21.92-3.78-12.83,20.34-32.23,17.39-50.87,8.49-21.96,30.2-70.12-9.32-85.89-29.15-45.91,6.47-91.58,6.25-138.43.36-18.22,21.06-62.58,58.25-86.05,28.96-24.96,10.79-35.67,9.96-51.76-7.79l-18.3,3.38c-8.84-8.6-23.02-12.99-21.72-29.83-1.57-16.78,1.12-32.44,13.02-46.53-39.43-7.16-69.72-30.11-89.21-63.02l-19.35,5.86c-11.3,3.42-21.26-6.43-27.56-16.53-10.13-16.27-10.39-34.96-15.94-52.83-4.71-15.17-9.87-28.34-10.37-45.41-1.64-56.09,14.48-109.87,41.64-158,8.53-15.12,19.55-28.65,32.64-42.87-17.63-13.81-33.35-28.87-46.16-46.95-2.95-2.69-8.64-1.13-11.31-2.45-7.79-3.84-17.7-6.04-21.89-15.02-4.84-10.36-.88-21.23,3.05-32.14-4.96-3.54-10.82-5.35-16.1-7.57-11.26-4.72-16.34-14.66-11.88-26.27,3.43-8.93,9.22-16.69,14.46-25.2-8.93-6-17.65-14.15-14.43-25.3,3.62-12.53,13.08-21.42,22.48-30.64,3.87-64.76,25.33-126.03,63.98-179.13-19.65-20.33-35.08-43.38-38.67-71.33-1.85-14.4,6.39-25.8,21.5-26.69-4.43-17.54-2.4-65.06,16.8-70.1,6.31-1.66,12.09-.19,17.28,3.35l45.41,30.98c4.13,2.82,10.57,2.74,13.5,5.04ZM90.72,73.87c2.59,6.65,4.05,15.21,7.98,21.28-.92,2.64-3.42,4.17-6.19,3.95-4.4-4.86-11.61-7.85-17.34-10.3-2.4-1.03-4.78-1.69-6.58-1.03-3.45,1.26-4.73,5.84-4,9.62,4.62,23.9,18.13,43.78,35.92,58.37,6.65,5.45,13.04,12.1,21.96,17.76-4.45,6.34-10,1.7-15.75,1.62-6.22-.08-7.49,7.22-10.25,10.97-31.61,42.91-49.26,95.69-55.22,149.55,5.74,1.07,9.14-2.95,12.99-3.62l23.17-4.01c2.85-.49,5.51.54,7.31,2.13,1.48,1.3,1.55,3.78.99,5.88-18.77,6.79-54.42,17.09-62.81,38.79-1.75,1.58-4.25,3.31-4.66,5.23-3.32,15.46,26.19,13.6,25.05,19.51-9.21,8.88-19.2,17.54-23.46,29.7-.73,2.08-2.99,3.6-3.15,5.62-.96,12.24,29.58,13.16,37.55,16.6-5.83,11.52-16.32,24.55-12.64,36.5,13.45,11.99,34.9,9.68,52.25,9.64.24,3.34-1.93,7.16-3.4,9.8-2.81,2.17-7.48,2.17-9.79,5.87,42.98,52.2,119,70.44,180.71,80.93l28.81,4.9c1.83.31,3.31,1.81,3.83,2.62,5.27,8.36-58.16,2.5-67.72-.13,1.19,14.38,1.66,27.57,1.3,40.96-.78,29.23-5.6,58.25-12.65,86.7-7.36,29.71-35.08,75.91-52.32,97.77-1.44,1.83-7.43,3.6-6.15,7.31,12.19,35.37,40.89,76.98,76.13,93.15,4.56,2.09,6.86-3.14,9.5-3.88,14.86-4.19,30.71-4.51,44.59,4.85,28.21-16.07,66.1,6.17,74.06,31.35.7,2.22-.39,8.26,3.86,8.88,42.38,6.22,85.04,6.4,127.47-.11,5.06-.78,2.95-8.17,3.66-10.72,14.21-23.99,42.59-44.82,72.59-29.25,15.22-10.35,32.43-9.17,48.29-3.16,2.52.96,3.77,2.36,8.4.55l15.27-5.99c13.27-5.2,69.82-76.96,58.11-91.47-19.83-24.57-50.37-77.68-56.29-112.19-3.6-21.01-8.18-41.87-9.01-63.23-.85-16.95-1.13-33.7,1.56-52-10.48,1.23-65.75,6.4-67.23.31-.2-.83.68-2.58,2.75-2.9l27.26-4.17c64.85-9.93,136.99-28.6,182.87-81.56-2.63-3.73-7.5-2.78-10.04-5.11-1.87-1.72-3.22-5.65-3.76-9.65,16.34.07,31.52.61,46.67-5.27,16.81-6.52-2.05-29.63-6.83-43.58,13.1-.98,26.11-1.44,36.01-9.65,5.04-4.18-1.23-7.77-1.97-10.71-3.08-12.37-13.75-20.61-22.83-29.44.45-4.39,20.79-1.99,25.76-14.06,2.54-6.16-4.68-11.32-7.31-15.42-14.93-23.24-50.48-28.62-58.76-33.83,1.21-13.31,18.97-2.35,29.04-2.74,3.77-.15,7.84,3.28,12.22,2.15-3.93-51.78-22.44-99.75-48.18-144.65-2.22-3.87-4.54-6.22-7.83-7.08-1.94-4.11-4.48-11.72-10.69-11.79-3.74-.04-7.66,5.13-10.4,1.45,15.07-12.83,29.84-25.9,40.46-43.79,5.16-8.7,24.11-45.65,3.91-40.58-10.4,2.61-17.66,14.86-23.38,11.17-2.31-1.49-3.05-4.29-2.94-6.72,2.76-3.79,2.67-9.17,4.68-13.16,9.41-18.71,13.78-42.58,4.14-61.09-5.26.46-9.96,4.24-14.92,7.81-33.76,24.32-69.9,42.28-111.83,50.21-126.74-53.91-289.31-55.99-415.94.46-45.45-6.57-85.08-26.46-120.96-54.1-2.83-2.18-9.78-8.19-12.97-5.4-9.66,17.27-7.62,38.42-.93,55.59ZM105.86,584.5c-39.63,48.21-68.82,136.1-54.08,198.03,1.03,4.35,4.85,9.1,10.86,7.55,22-5.65,28.27-28.08,33.05-28.49,7.5-.64-1.42,24.76,13.84,50.4,3.69,6.2,3.85,15.98,12.43,20.83,9.73,5.51,13.15-3.06,20.92-10.11,52.9-48.02,77.48-150.83,67.59-222.21-31.12-8.2-59.98-18.39-88.83-32.5-7.03,4.22-10.6,10.57-15.77,16.49ZM722.05,828.16l13.22,8.07c2.91,1.78,4.89-3.63,7.6-5.11,7.98-4.36,9.17-13.81,12.65-21.3,11.59-24.94,1.94-45.21,7.83-47.62,5.39-2.21,18.2,33.25,39.28,26.21,4.5-3.21,5.69-12.61,6.04-19.41,3.35-65.61-16.22-132.45-59.02-183.15-4.57-5.41-8.22-11.8-14.75-16.66-27.32,13.1-54.15,22.62-84.92,30.1-6.98,79.86,11.35,172.17,72.08,228.86ZM64.5,805.28c-16.15-4.39,3.59,39.05,7.22,45.8,3.32,6.17,9.3,8.21,16.11,6.83,8.6-2.79,16.95-5.96,23.77-12.36.88-.05,2.76-.63,3.11-2.44-18.02-13.72-20.37-32.02-26-52.49-7.79,6.91-14.87,11.53-24.21,14.66ZM798.35,805.79c-9.9-2.26-17.22-6.23-25.98-11.57-3.19,20.35-10.07,38.94-24.85,51.61,7.77,5.56,14.31,8.77,22.26,11.4,20.43,6.76,28.44-38.19,28.57-51.44ZM734.28,856.85l-13.84-9.38c-16.01,26.93-34.76,49.21-57.17,71.47,30.52-9.37,57.01-32.02,71.01-62.09ZM186.51,913.19c-5.21-9.47-12.66-16.29-18.66-24.88-13.67-10.32-24.27-22.28-32.91-36.94-6.37,3.01-11.65,5.4-16.17,11.31,15.42,24.68,37.57,44.49,67.73,50.51ZM244.87,940.92c-13.57,9.21-19.72,27.54-14.83,43.76.27.9.49,1.9.58,2.83.92,8.95,7.77,17.48,17.99,17.68,6.83.13,12.79-2.38,18.52-5.5-3.36-10.41-1.49-20.05-1.54-29.86,1.36-10.08,4.2-20.16,11.84-29.57-11.53-9-23.14-5.74-32.56.66ZM591.38,976.52c.2,6.6-1.46,14.26-.3,21.48,1.07,6.7,15.11,7.95,20.8,6.58,7.82-1.89,12.54-9.99,13.24-17.8.68-7.54,4.23-16.11.04-23.12-.6-8.23-5.3-15.1-10.75-20.76-8.02-8.34-25.08-11.7-35.1-3.11,3.82,11.15,11.7,24.14,12.08,36.73ZM206.53,942.83c-10.6,6.59-12.66,20.01-10.96,33.87.63,5.14,2.16,10.6,7.04,14.72,2.79,2.36,12.19.32,12.02-4.2-.61-17.18.33-32.85,10.54-47.58-6.03-5.01-14.04-3.22-18.65,3.19ZM661.25,976.69c1.08-11.56.61-24.66-9.06-33.7-4.26-7.87-14.89-9.16-22.56-3.29,10.13,15.61,11.2,31.6,11.43,48.98.06,4.52,11.03,5.77,13.89,3.15,3.95-3.61,5.81-8.97,6.31-15.14ZM297.22,940.7c-9.34,5.88-16.7,15.58-17.26,27.2-3.89,6.38-.99,15.88.44,23,1.15,5.71,4.8,18.82,13.89,18.15,19.96-2.83,45.18-19.38,52.54-38.72,2.5-15.21-15.34-26.08-26.47-29.79-8.36-2.78-15.63-4.55-23.14.17ZM520.84,948.71c-5.26,4.16-15.35,14.13-11.12,22.74,9.26,18.84,31.02,33.39,51.48,37.36,9.49,1.84,14.03-10.05,14.85-17.71l.43-4.01c1.34-12.38.08-25.8-9.26-36.52-2.02-6.81-8.29-11.31-16.33-12.6-11.28-1.82-21.7,2.87-30.07,10.75Z" style="fill: #322c38;"/>
    <path d="M633.11,653.15c.83,21.35,5.41,42.22,9.01,63.23-1,5.73-.71,11.79.38,18.33l5.19,31.13c-5.07,28.86-14.76,56.44-33.77,79.25-51.01,61.22-133.33,77.79-209.69,73.42-88.47-5.06-177.67-50.3-193.11-144.96-2.41-14.79,7.04-35.34,3.82-44.26,7.05-28.45,11.87-57.48,12.65-86.7,22.46-11.84,75.4-21.09,102.81-24.13,91.14-10.11,213.97-8.83,301.26,21.16-2.53,6.13,1.3,10.09,1.44,13.54ZM317.38,703.66c-11.7,8.83-25.68,6.06-34.69-4.32-3.77-4.35-4.95-10.53-10.7-13.87-6.17,18.07,8.95,34.22,25.08,36.48,17.75,2.49,34.14-9.8,34.5-28.06-6.37,1.04-9.38,6.13-14.18,9.76ZM526.54,700.11c5.01,17.33,22.48,26.07,39.16,21.94,14.16-3.5,27.74-19.73,21.58-36.4-8.54,6.89-10.75,17.56-20.24,21.23-24.06,9.32-35.19-15.5-39.31-12.24-.83.65-2.03,2.57-1.19,5.46ZM429.45,730.1c-15.7-.61-22.3-13.56-28.2-19.62-.79-.81-4.58-.49-4.51,1.9.58,18.93,17.24,31.73,34.88,31.69,16.56-.03,31.06-13.79,32.35-31.07-6.48-8.76-10.48,18.03-34.52,17.1ZM352.29,785.08c-22.44,7.55-31.81-14.16-41.71-20.2-1.44,20.02,14.2,35.17,32.41,35.65,17.42.46,35.15-13.87,31.96-32.39-9.84,5.61-13.2,13.75-22.65,16.93ZM486.18,768.29c-4.14,19.52,15.32,33.82,33.75,32.51,16.44-1.17,33.87-16.8,29.26-35.8-9.71,9.91-16.86,20.01-29.98,21.43-13.6,1.47-21.61-8.66-33.03-18.14ZM463.4,826.18c-7.81,6.69-12.27,14.95-20.83,18.24-16.97,6.53-31.56-3.32-42.51-19.3-7.25,15.53,6.26,30.48,20.91,33.81,11.15,2.54,21.97,2.15,31-5.48,6.76-5.71,15.06-15.49,11.42-27.28Z" style="fill: #f6ebcd;"/>
    <path d="M698.42,828.58c-6.64,8.08-10.26,18.2-16.15,27.71-17.38,28.09-39.17,51.18-65.63,69.2-15.86-6.01-33.07-7.19-48.29,3.16-30-15.57-58.38,5.26-72.59,29.25-3.78,2.63-9,3.41-14.69,3.99-40.71,4.12-80.82,3.38-120.3-2.05-7.96-25.18-45.84-47.42-74.06-31.35-13.89-9.35-29.73-9.04-44.59-4.85-33.69-21.88-59.46-53.36-75.57-91.22-1.09-2.55-1.98-4.71-3.91-5.36,17.24-21.86,44.96-68.06,52.32-97.77,3.21,8.92-6.24,29.47-3.82,44.26,15.44,94.66,104.64,139.9,193.11,144.96,76.36,4.37,158.69-12.2,209.69-73.42,19.01-22.82,28.7-50.39,33.77-79.25l-5.19-31.13c-1.09-6.54-1.38-12.59-.38-18.33,5.92,34.51,36.46,87.62,56.29,112.19Z" style="fill: #dfbf9c;"/>
    <path d="M109.53,812c-15.26-25.65-6.34-51.04-13.84-50.4-4.77.41-11.05,22.83-33.05,28.49-6.81-41.15-2.22-82.52,12.55-122.53,9.24-25.05,19.42-48.39,36.61-68.8,2.88-3.41,5.91-6.61,5.55-10.72l65.57,19.09c7.96,2.32,15.18,4.51,21.81,10.82-1.27,38.62-6.62,76.62-19.85,113.05-12.37,34.05-39.88,73.36-75.35,80.99Z" style="fill: #9b7f82;"/>
    <path d="M802.62,788.41c-21.07,7.04-33.88-28.42-39.28-26.21-5.89,2.41,3.76,22.68-7.83,47.62-3.37.77-7.32.9-11.36-.72-36.51-14.68-60.96-56.83-72.17-93.09-9.34-30.2-13.86-60.87-16.26-92.67-.5-6.68,7.53-11.44,12.67-13.44,23.48-9.13,46.82-14.84,70.05-21.53,3.68,8.07,10.28,14.03,15.6,22.37,33.23,52.09,48.84,113.36,46.61,175.22-.07,1.91.73,2.96,1.95,2.45Z" style="fill: #987c80;"/>
    <path d="M749.64,585.86c-4.01-.66-7.5,1.45-11.18,2.51-23.23,6.69-46.56,12.4-70.05,21.53-5.15,2-13.18,6.77-12.67,13.44,2.4,31.8,6.92,62.47,16.26,92.67,11.21,36.26,35.66,78.42,72.17,93.09,4.04,1.62,7.99,1.49,11.36.72-3.48,7.48-4.66,16.94-12.65,21.3-7.51,2.69-22.49-6.79-20.82-2.96-60.73-56.69-79.06-149-72.08-228.86,30.77-7.48,57.6-17.01,84.92-30.1,6.53,4.86,10.18,11.25,14.75,16.66Z" style="fill: #745e65;"/>
    <path d="M142.87,822.72c-6.95,3.33-14.73,5.48-20.92,10.11-8.58-4.85-8.74-14.63-12.43-20.83,35.47-7.63,62.97-46.94,75.35-80.99,13.24-36.43,18.58-74.43,19.85-113.05-6.64-6.31-13.85-8.5-21.81-10.82l-65.57-19.09c-3.8-1.11-7.99-1.27-11.49-3.54,5.17-5.92,8.74-12.26,15.77-16.49,28.85,14.1,57.7,24.3,88.83,32.5,9.89,71.38-14.69,174.19-67.59,222.21Z" style="fill: #7b6268;"/>
    <path d="M117.35,588.04c.36,4.1-2.67,7.3-5.55,10.72-17.19,20.41-27.37,43.75-36.61,68.8-14.77,40.01-19.36,81.38-12.55,122.53-6.01,1.55-9.83-3.21-10.86-7.55-14.74-61.93,14.44-149.82,54.08-198.03,3.5,2.27,7.69,2.44,11.49,3.54Z" style="fill: #ebcb9e;"/>
    <path d="M749.64,585.86c42.8,50.7,62.38,117.53,59.02,183.15-.35,6.8-1.54,16.2-6.04,19.41-1.22.51-2.02-.53-1.95-2.45,2.23-61.86-13.38-123.13-46.61-175.22-5.32-8.34-11.92-14.3-15.6-22.37,3.68-1.06,7.18-3.17,11.18-2.51Z" style="fill: #e7c59b;"/>
    <path d="M320.37,940.53c-1.31,5.89,14.25,9.66,14.37,21.86.12,12.18-32.53,35.67-54.33,28.5-1.43-7.12-4.33-16.61-.44-23-.21,4.45.17,9.53,1.58,15.07-1.48-20.27,29.72-46.93,15.68-42.27,7.51-4.72,14.79-2.95,23.14-.17Z" style="fill: #c48b4c;"/>
    <path d="M798.35,805.79c-.13,13.25-8.14,58.2-28.57,51.44-7.96-2.63-14.49-5.84-22.26-11.4,14.77-12.67,21.66-31.26,24.85-51.61,8.76,5.35,16.08,9.32,25.98,11.57Z" style="fill: #6f5963;"/>
    <path d="M614.4,942.9c-13.58.7,8.85,19.32,9.52,31.98,1.43-4.2,1.48-7.89,1.23-11.22,4.19,7.01.64,15.58-.04,23.12-8.37-3.82-30.96,7.81-33.73-10.26-.38-12.6-8.26-25.58-12.08-36.73,10.02-8.59,27.08-5.23,35.1,3.11Z" style="fill: #c4884b;"/>
    <path d="M265.59,969.84c-.41,3.07-3.41,8.27-2.07,13.36-9.54,5.23-22.73,8.07-32.9,4.32-.1-.93-.31-1.94-.58-2.83,1.4-.52,2.44-2.08,2.86-4.22,6.56-33.64,23.94-31.77,11.97-39.55,9.42-6.4,21.03-9.66,32.56-.66-7.64,9.42-10.48,19.49-11.84,29.57Z" style="fill: #c18a4c;"/>
    <path d="M242.12,923.64c-2.65.75-4.94,5.97-9.5,3.88-35.24-16.16-63.94-57.77-76.13-93.15-1.28-3.71,4.71-5.49,6.15-7.31,1.93.65,2.82,2.8,3.91,5.36,16.11,37.86,41.88,69.34,75.57,91.22Z" style="fill: #f3eac3;"/>
    <path d="M280.41,990.89c21.8,7.16,54.44-16.32,54.33-28.5-.12-12.2-15.68-15.98-14.37-21.86,11.14,3.71,28.97,14.58,26.47,29.79-7.36,19.34-32.58,35.89-52.54,38.72-9.09.67-12.75-12.44-13.89-18.15Z" style="fill: #a76f3e;"/>
    <path d="M111.6,845.56c-7.96,1.54-17.28,10.83-27.57-2.47-14.8-19.13-11.59-38.14-19.53-37.81,9.33-3.13,16.42-7.75,24.21-14.66,5.63,20.47,7.98,38.77,26,52.49-.35,1.81-2.23,2.4-3.11,2.44Z" style="fill: #7b656b;"/>
    <path d="M186.51,913.19c-30.16-6.02-52.31-25.83-67.73-50.51,4.52-5.91,9.79-8.3,16.17-11.31,8.64,14.66,19.24,26.63,32.91,36.94,6,8.59,13.45,15.4,18.66,24.88Z" style="fill: #876b71;"/>
    <path d="M734.28,856.85c-14.01,30.07-40.49,52.72-71.01,62.09,22.41-22.26,41.16-44.54,57.17-71.47l13.84,9.38Z" style="fill: #937574;"/>
    <path d="M360.77,959.83c39.49,5.42,79.59,6.17,120.3,2.05,5.69-.58,10.91-1.36,14.69-3.99-.71,2.54,1.41,9.94-3.66,10.72-42.43,6.51-85.09,6.33-127.47.11-4.25-.62-3.16-6.67-3.86-8.88Z" style="fill: #f4ecc7;"/>
    <path d="M616.64,925.49c26.46-18.02,48.25-41.1,65.63-69.2,5.89-9.51,9.51-19.63,16.15-27.71,11.71,14.51-44.85,86.26-58.11,91.47l-15.27,5.99c-4.62,1.81-5.88.41-8.4-.55Z" style="fill: #f4edc8;"/>
    <path d="M652.19,942.99c-5.6-.04,6.48,35.78,9.06,33.7-.5,6.16-2.36,11.52-6.31,15.14-2.86,2.62-13.83,1.37-13.89-3.15-.22-17.38-1.29-33.37-11.43-48.98,7.66-5.87,18.3-4.58,22.56,3.29Z" style="fill: #ac7543;"/>
    <path d="M64.5,805.28c7.94-.33,4.72,18.68,19.53,37.81,10.29,13.3,19.62,4.01,27.57,2.47-6.83,6.4-15.17,9.57-23.77,12.36-6.81,1.38-12.8-.66-16.11-6.83-3.63-6.75-23.36-50.19-7.22-45.8Z" style="fill: #e8ca9c;"/>
    <path d="M195.57,976.7c5.97-10.24,10.62-22.43,10.96-33.87,4.61-6.41,12.62-8.2,18.65-3.19-10.22,14.73-11.16,30.4-10.54,47.58.16,4.52-9.23,6.56-12.02,4.2-4.87-4.12-6.41-9.58-7.04-14.72Z" style="fill: #b67e48;"/>
    <path d="M625.11,986.78c-.7,7.8-5.42,15.91-13.24,17.8-5.69,1.38-19.73.12-20.8-6.58-1.15-7.22.5-14.88.3-21.48,2.77,18.07,25.36,6.45,33.73,10.26Z" style="fill: #a86e3d;"/>
    <path d="M230.62,987.52c10.17,3.75,23.37.91,32.9-4.32-1.35-5.09,1.65-10.29,2.07-13.36.05,9.81-1.82,19.45,1.54,29.86-5.73,3.11-11.7,5.63-18.52,5.5-10.21-.2-17.06-8.73-17.99-17.68Z" style="fill: #a46d3e;"/>
    <path d="M230.04,984.69c-4.88-16.22,1.26-34.55,14.83-43.76,11.97,7.78-5.42,5.91-11.97,39.55-.42,2.13-1.46,3.69-2.86,4.22Z" style="fill: #efce71;"/>
    <path d="M279.97,967.89c.55-11.62,7.91-21.32,17.26-27.2,14.04-4.66-17.16,22-15.68,42.27-1.41-5.54-1.79-10.62-1.58-15.07Z" style="fill: #eecd6e;"/>
    <path d="M614.4,942.9c5.45,5.67,10.15,12.54,10.75,20.76.24,3.32.2,7.02-1.23,11.22-.67-12.66-23.1-31.28-9.52-31.98Z" style="fill: #edce73;"/>
    <path d="M661.25,976.69c-2.58,2.08-14.66-33.74-9.06-33.7,9.67,9.04,10.15,22.14,9.06,33.7Z" style="fill: #e7c770;"/>
    <path d="M195.57,976.7c-1.7-13.86.36-27.29,10.96-33.87-.34,11.44-4.98,23.63-10.96,33.87Z" style="fill: #e9cb70;"/>
    <path d="M142.87,822.72c-7.77,7.05-11.19,15.62-20.92,10.11,6.18-4.63,13.96-6.78,20.92-10.11Z" style="fill: #c0a18b;"/>
    <path d="M742.87,831.12c-2.72,1.48-4.69,6.89-7.6,5.11l-13.22-8.07c-1.67-3.83,13.3,5.64,20.82,2.96Z" style="fill: #b69e8b;"/>
    <path d="M463.4,826.18c3.64,11.79-4.66,21.56-11.42,27.28-9.02,7.63-19.84,8.02-31,5.48-14.65-3.34-28.17-18.28-20.91-33.81,10.95,15.98,25.54,25.83,42.51,19.3,8.56-3.29,13.02-11.56,20.83-18.24Z" style="fill: #dfc29d;"/>
    <path d="M429.45,730.1c24.03.93,28.04-25.87,34.52-17.1-1.28,17.28-15.79,31.04-32.35,31.07-17.64.03-34.29-12.77-34.88-31.69-.07-2.39,3.72-2.71,4.51-1.9,5.91,6.06,12.5,19.02,28.2,19.62Z" style="fill: #dfc39e;"/>
    <path d="M486.18,768.29c11.42,9.48,19.42,19.61,33.03,18.14,13.11-1.42,20.27-11.51,29.98-21.43,4.61,18.99-12.82,34.62-29.26,35.8-18.43,1.31-37.89-12.99-33.75-32.51Z" style="fill: #dec19d;"/>
    <path d="M352.29,785.08c9.45-3.18,12.82-11.32,22.65-16.93,3.19,18.51-14.54,32.85-31.96,32.39-18.21-.49-33.84-15.64-32.41-35.65,9.9,6.04,19.28,27.74,41.71,20.2Z" style="fill: #dec19c;"/>
    <path d="M526.54,700.11c-.84-2.89.36-4.81,1.19-5.46,4.12-3.25,15.25,21.56,39.31,12.24,9.49-3.68,11.7-14.35,20.24-21.23,6.16,16.67-7.42,32.89-21.58,36.4-16.68,4.13-34.15-4.62-39.16-21.94Z" style="fill: #e1c39e;"/>
    <path d="M317.38,703.66c4.81-3.63,7.81-8.71,14.18-9.76-.35,18.25-16.74,30.55-34.5,28.06-16.13-2.27-31.25-18.41-25.08-36.48,5.75,3.34,6.93,9.52,10.7,13.87,9.01,10.38,22.99,13.15,34.69,4.32Z" style="fill: #dec39e;"/>
    <!-- Pattes / griffes -->
    <g>
      <path d="M567.24,950.57c-10.43-1.07,3.55,14.28,6.22,31.17.41,2.57,1.23,4.62,3.04,5.35l-.43,4.01-14.18,1.71c-7.47.9-51.36-21.91-39.6-40.5,1.01-1.6-.36-3.37-1.44-3.6,8.37-7.87,18.79-12.57,30.07-10.75,8.04,1.3,14.3,5.8,16.33,12.6Z" style="fill: #c28a4d;"/>
      <path d="M576.07,991.1c-.83,7.66-5.36,19.55-14.85,17.71-20.46-3.97-42.23-18.52-51.48-37.36-4.23-8.61,5.86-18.58,11.12-22.74,1.08.23,2.45,2.01,1.44,3.6-11.76,18.59,32.13,41.4,39.6,40.5l14.18-1.71Z" style="fill: #a36d3f;"/>
      <path d="M567.24,950.57c9.33,10.73,10.59,24.15,9.26,36.52-1.81-.74-2.63-2.78-3.04-5.35-2.67-16.89-16.65-32.24-6.22-31.17Z" style="fill: #ecc76d;"/>
    </g>
    <!-- Tête / visage / yeux -->
    <g>
      <path d="M777.26,336.11c8.28,5.21,43.83,10.6,58.76,33.83-3.03,16.89-20.16,17.04-33.3,17.83,3.7,6.77,10.86,7.77,14.86,11.66,9.08,8.83,19.75,17.07,22.83,29.44-14.03,7.93-29.13,11.28-46.87,9.13.29,7.37,15.1,35.95,7.29,39.75-16.82,8.19-35.54,3.82-52.46-2.52-6.51,7.4,9.64,18.06-.61,28.36-33.54,33.71-101.87,57.76-148.91,66.79-105.47,20.24-213.12,21.24-319.01,3.29-48.91-8.29-116.25-28.4-154.41-59.29-6.54-5.3-16.65-12.08-16.72-20.73,1.27-5.41,10.4-9.03,8.9-16.79-20.52,5.96-41.62,9.51-60.93.65-4.59-16.7,17.04-35.1,11.1-39.53-17.9,1.4-35.34,1.9-47.92-8.72,4.26-12.16,14.25-20.82,23.46-29.7,4.72-4.55,14.06-5.27,16.09-12.66-15.11.46-29.73-.84-36.49-12.08,8.39-21.7,44.04-31.99,62.81-38.79,2.01-.73,2.48-3.11,2.87-5.85,4.43-30.64,11.98-59.36,28.26-85.78,23.1-37.47,57.07-67.15,100.19-79.33,67.5-19.07,139.02,4.78,183.73,59.21,4.1-5.41,2.73-12.29,5.98-18.96,6.98,14.5,13,29.22,23.55,43.35,10.44-12.93,15.97-26.5,24.3-39.12,3.37,4.83,2.58,9.26,4.76,14.05,49.18-53.69,112.65-77.32,182.48-59.23,46.71,12.1,90.4,47.21,112.42,95.92,9.96,22.02,15.66,44.62,18.8,69.08.44,3.43,2.08,5.42,4.17,6.73ZM541.96,420.82c-6.19,5.34,27.01,23.32,33.88,25.27,16.66,4.73,35.91,8.07,52.74,5.14-3.12,20.08,13.46,39.1,33.84,43.97,19.93,4.76,40.13,3.51,56.97-7.44,9.2-5.98,15.9-13.55,17.3-22.51,4.39-27.91-21.61-43.4-45.53-48.54,1.45-1.63,18.51-29.91,8.09-26.32.11-2.97,14.88-32.45,5.8-28.83,3.31-.57,2.08-4.47,2.76-6.1,6.07-14.59,2.64-46.18-6.73-61.99,4.92-8.85,11.58-12.99,11.84-22.65-6.2-.32-17.29,5.67-22.74-.05-34.82-36.53-89.14-46.79-133.55-21.68-30.31,17.14-48.45,48.27-51.46,80.34-3.41,36.32,11.97,66.75,36.79,91.39ZM221.34,247.49c-.18-1.42-2.41-2.33-2.87-4.34-.4-1.75-1.94-.09-3.35.21-17.09,3.53-30.13,16.39-44.26,27.46-6.62,5.19-16.19,1.25-24.31-1.5-.44,10.3,7.45,17.84,13.91,25.48-11.9,27.13-15.23,62.38-.75,90.1-7.95,4.69,9.16,30.49,10.5,31.75-14.35,4.51-29.88,10.11-39.2,23.57-12.46,17.99-2.86,41.06,16.28,50.08,20.02,9.43,42.81,11.01,63.52,1.82,13.97-6.2,30.53-26.42,25.68-41.09,40.41,4.62,83.82-15.53,101.27-51.13,9.71-19.82,19.41-37.52,18.64-61.8-1-31.8-14.24-60.7-37.12-79.31-25.76-20.96-58.15-27.03-90.1-20.31-2.74.58-5.76.84-7.31,2.44-1.6,1.65-.73,4.55-.53,6.56ZM479.06,431.54c7.79-11.47,10.22-23.41.05-34.62-12.52-13.81-29.37-24.04-48.6-27.7-18.71,3.82-34.75,13.91-47.35,27.09-9.6,10.04-8.16,21.67-.99,32.58,9.83,14.97,30.12,57.62,49.35,57.6,20.86-.01,37.37-39.97,47.54-54.95Z" style="fill: #f6ebcc;"/>
      <path d="M749.59,44.33c11.46,7.79,12.42,22.87,14.54,36.05-2,3.98-1.92,9.37-4.68,13.16-5.14,7.07-11.68,14.47-13,24.54l39.18-20.79c-.82,13.32-8.68,24.85-16.19,36.68-10.53,16.58-35.11,35.99-34.63,40.4.18,1.65,2.71,1.74,4.02.64.55-.46,1.3-.78,2.57-1.56,2.75,3.68,6.67-1.49,10.4-1.45,6.21.07,8.75,7.68,10.69,11.79l-7.53,2.9c25.4,47.18,46.13,93.41,51.32,146.67-10.07.39-27.83-10.57-29.04,2.74-2.09-1.31-3.73-3.31-4.17-6.73-3.14-24.46-8.84-47.06-18.8-69.08-22.03-48.7-65.71-83.82-112.42-95.92-69.83-18.09-133.3,5.54-182.48,59.23-2.19-4.79-1.39-9.22-4.76-14.05-8.33,12.61-13.86,26.18-24.3,39.12-10.55-14.13-16.57-28.85-23.55-43.35-3.24,6.66-1.87,13.55-5.98,18.96-44.7-54.43-116.23-78.28-183.73-59.21-43.12,12.18-77.09,41.86-100.19,79.33-16.29,26.42-23.84,55.14-28.26,85.78-.4,2.74-.87,5.13-2.87,5.85.56-2.1.49-4.58-.99-5.88-1.81-1.59-4.46-2.62-7.31-2.13l-23.17,4.01c6.42-50.51,24.23-98.93,51.24-143.82-2.54-3.64-6.17-2.46-9.01-2.11,2.76-3.74,4.03-11.04,10.25-10.97,5.75.07,11.29,4.71,15.75-1.62-8.92-5.66-15.31-12.3-21.96-17.76.46-.34,1.56-.32,1.48-1.11-13.89-20.17-23.66-42.39-26.82-65.85,5.73,2.45,12.93,5.44,17.34,10.3,5.41,5.97,10.9,12.44,19.86,15.37-3.01-8.6-8.61-14.2-13.67-19.32-3.92-6.07-5.39-14.63-7.98-21.28,2.24-6.31-.96-35.93,11.88-38.05,31.97,28.03,84.79,52.74,127.06,55.45,124.33-57.83,278.41-55.43,403.79-2.63,7.01,2.95,14.04,1.68,21.08.17,35.47-7.63,66.43-24.05,95.07-44.49Z" style="fill: #a38484;"/>
      <path d="M840.4,428.86c.73,2.94,7.01,6.53,1.97,10.71-9.91,8.22-22.91,8.67-36.01,9.65,4.78,13.96,23.64,37.07,6.83,43.58-15.15,5.87-30.32,5.34-46.67,5.27.54,4.01,1.88,7.93,3.76,9.65l-7.58,10.76c-22.85,32.42-133.31,70.09-173.76,74.32,3.18,2.38,6.18.82,8.51,1.59l-27.26,4.17c-2.07.32-2.95,2.07-2.75,2.9,1.48,6.09,56.76.92,67.23-.31-2.69,18.29-2.41,35.05-1.56,52-.13-3.45-3.96-7.41-1.44-13.54-87.28-29.99-210.12-31.26-301.26-21.16-27.4,3.04-80.35,12.29-102.81,24.13.36-13.39-.1-26.58-1.3-40.96,9.56,2.62,72.99,8.49,67.72.13-.52-.82-2-2.31-3.83-2.62l-28.81-4.9c1.47-.42,3.39.66,6.21-1.41-57.84-14.21-139.11-35.17-177.13-85.4,1.47-2.65,3.64-6.47,3.4-9.8-17.35.04-38.79,2.35-52.25-9.64-3.67-11.95,6.82-24.98,12.64-36.5-7.97-3.44-38.52-4.36-37.55-16.6.16-2.02,2.42-3.54,3.15-5.62,12.58,10.62,30.02,10.12,47.92,8.72,5.94,4.43-15.69,22.84-11.1,39.53,19.31,8.86,40.41,5.3,60.93-.65,1.5,7.76-7.63,11.37-8.9,16.79.07,8.65,10.17,15.44,16.72,20.73,38.16,30.89,105.5,51,154.41,59.29,105.89,17.95,213.54,16.95,319.01-3.29,47.04-9.03,115.37-33.08,148.91-66.79,10.25-10.3-5.9-20.96.61-28.36,16.91,6.34,35.63,10.71,52.46,2.52,7.81-3.8-7-32.38-7.29-39.75,17.74,2.15,32.84-1.21,46.87-9.13Z" style="fill: #dfbf99;"/>
      <path d="M768.27,19.28c3.32,7.8-15.85,18.1-18.68,25.04-28.63,20.43-59.6,36.85-95.07,44.49-7.04,1.52-14.07,2.79-21.08-.17-125.38-52.8-279.46-55.2-403.79,2.63-42.26-2.72-95.08-27.43-127.06-55.45-12.84,2.12-9.64,31.74-11.88,38.05-6.69-17.17-8.72-38.32.93-55.59,3.19-2.79,10.14,3.21,12.97,5.4,35.89,27.64,75.52,47.52,120.96,54.1,126.63-56.45,289.19-54.37,415.94-.46,41.93-7.93,78.06-25.89,111.83-50.21,4.96-3.57,9.66-7.35,14.92-7.81Z" style="fill: #eecea5;"/>
      <path d="M806.3,333.37c-5.18-53.26-25.92-99.5-51.32-146.67l7.53-2.9c3.29.86,5.61,3.21,7.83,7.08,25.74,44.9,44.25,92.87,48.18,144.65-4.38,1.13-8.46-2.29-12.22-2.15Z" style="fill: #e9c899;"/>
      <path d="M54.26,332.03c-3.86.67-7.25,4.69-12.99,3.62,5.96-53.86,23.61-106.64,55.22-149.55,2.84-.34,6.47-1.53,9.01,2.11-27.01,44.89-44.81,93.3-51.24,143.82Z" style="fill: #eed0a1;"/>
      <path d="M261.39,594.23c-61.71-10.49-137.73-28.73-180.71-80.93,2.31-3.7,6.98-3.71,9.79-5.87,38.02,50.23,119.29,71.19,177.13,85.4-2.82,2.06-4.74.99-6.21,1.41Z" style="fill: #f2ebc3;"/>
      <path d="M597.44,594.4c-2.33-.77-5.33.79-8.51-1.59,40.45-4.23,150.91-41.91,173.76-74.32l7.58-10.76c2.54,2.33,7.41,1.38,10.04,5.11-45.88,52.96-118.02,71.64-182.87,81.56Z" style="fill: #f3edca;"/>
      <path d="M741.41,173.45c-1.27.77-2.02,1.09-2.57,1.56-1.31,1.09-3.84,1-4.02-.64-.48-4.4,24.1-23.82,34.63-40.4,7.51-11.83,15.38-23.36,16.19-36.68.17-2.72,1.83-5.53.14-8.2,20.2-5.07,1.25,31.88-3.91,40.58-10.61,17.88-25.39,30.96-40.46,43.79Z" style="fill: #e8ce9f;"/>
      <path d="M764.13,80.37c-2.11-13.17-3.08-28.25-14.54-36.05,2.82-6.94,22-17.24,18.68-25.04,9.65,18.51,5.27,42.37-4.14,61.09Z" style="fill: #886c71;"/>
      <path d="M75.18,88.8c3.16,23.45,12.94,45.68,26.82,65.85.08.79-1.02.77-1.48,1.11-17.79-14.59-31.3-34.47-35.92-58.37-.73-3.78.56-8.36,4-9.62,1.81-.66,4.18,0,6.58,1.03Z" style="fill: #e8cc9f;"/>
      <path d="M817.57,399.42c-4-3.89-11.15-4.89-14.86-11.66,13.14-.79,30.27-.93,33.3-17.83,2.64,4.1,9.85,9.27,7.31,15.42-4.97,12.07-25.31,9.67-25.76,14.06Z" style="fill: #e3c69d;"/>
      <path d="M43.32,399.56c1.14-5.91-28.37-4.06-25.05-19.51.41-1.92,2.91-3.65,4.66-5.23,6.75,11.24,21.37,12.54,36.49,12.08-2.03,7.39-11.38,8.11-16.09,12.66Z" style="fill: #e1c69e;"/>
      <path d="M785.78,89.08c1.69,2.67.03,5.49-.14,8.2l-39.18,20.79c1.32-10.07,7.86-17.47,13-24.54-.11,2.43.63,5.23,2.94,6.72,5.72,3.7,12.99-8.55,23.38-11.17Z" style="fill: #786067;"/>
      <path d="M92.51,99.1c2.77.22,5.26-1.31,6.19-3.95,5.06,5.12,10.66,10.72,13.67,19.32-8.96-2.93-14.45-9.4-19.86-15.37Z" style="fill: #715c5f;"/>
      <path d="M170.21,416.65c18.22,17.17,40.88,31.48,66.28,34.38,4.85,14.67-11.71,34.89-25.68,41.09-20.71,9.19-43.5,7.61-63.52-1.82-19.14-9.02-28.74-32.1-16.28-50.08,9.32-13.45,24.85-19.05,39.2-23.57Z" style="fill: #f0c4af;"/>
      <path d="M628.58,451.22c24.15-4.21,46.43-16.41,62.58-34.52,23.92,5.13,49.92,20.63,45.53,48.54-1.41,8.96-8.1,16.53-17.3,22.51-16.84,10.94-37.04,12.2-56.97,7.44-20.38-4.87-36.96-23.9-33.84-43.97Z" style="fill: #efc3ae;"/>
      <path d="M691.16,416.71c-16.14,18.1-38.43,30.3-62.58,34.52-16.83,2.94-36.08-.41-52.74-5.14-6.87-1.95-40.07-19.93-33.88-25.27,46.39,33.99,107.05,28.32,144.22-17.72,3.95-4.89,7.33-10.67,13.07-12.71,10.43-3.59-6.63,24.69-8.09,26.32Z" style="fill: #f9faf7;"/>
      <path d="M337.76,399.9c-17.45,35.6-60.86,55.75-101.27,51.13-25.39-2.9-48.06-17.21-66.28-34.38-1.33-1.26-18.45-27.06-10.5-31.75,11.92,22.82,34.97,41.38,58.52,50.93,44.91,18.22,91.13.24,119.52-35.92Z" style="fill: #f8f9f6;"/>
      <!-- Bec -->
      <g id="owl-beak">
        <path d="M479.06,431.54c-10.17,14.98-26.68,54.93-47.54,54.95-19.24.01-39.52-42.63-49.35-57.6-7.16-10.91-8.61-22.54.99-32.58,12.6-13.19,28.64-23.27,47.35-27.09,19.23,3.67,36.08,13.89,48.6,27.7,10.16,11.21,7.74,23.16-.05,34.62ZM401.32,426.33c1.22,3.2,3.7,5.58,8.3,7.44,5.4,6.5,12.49,11.77,20.87,15.84,10.46-1.29,54.58-33.4,37.99-43.76-1.99-4.25-5.69-6.92-10.6-9.95-8.33-5.15-17.75-14.53-29.49-12.43-13.88,2.49-28.41,12.35-36.61,23.33-5.33,7.14,3.93,15.7,9.53,19.53ZM439.54,469.88c7.61-6.67,14.49-14.3,18.64-23.9-9.08,6.95-17.66,15.25-29.36,14.12-8.91-.86-13.53-8.75-21.81-12.01,7.62,10.94,18.95,33.69,32.53,21.78Z" style="fill: #332d36;"/>
        <path d="M457.88,395.9c4.91,3.03,8.61,5.71,10.6,9.95-7.06,13.44-19.17,25.59-34.2,31.65-8.49,3.42-17.3-2.11-24.66-3.73-4.6-1.86-7.08-4.24-8.3-7.44,1.38-4.95-4.35-8.28-4.73-14.98,8.6-10.35,21.81-18.73,35.87-21.12,9.26-1.57,22.39,9.76,25.42,5.67Z" style="fill: #c58e4e;"/>
        <path d="M409.62,433.77c7.36,1.62,16.17,7.15,24.66,3.73,15.03-6.06,27.14-18.21,34.2-31.65,16.59,10.36-27.53,42.47-37.99,43.76-8.38-4.07-15.47-9.35-20.87-15.84Z" style="fill: #a77041;"/>
        <path d="M457.88,395.9c-3.03,4.09-16.16-7.24-25.42-5.67-14.06,2.39-27.27,10.77-35.87,21.12.38,6.7,6.11,10.04,4.73,14.98-5.6-3.83-14.87-12.39-9.53-19.53,8.2-10.98,22.72-20.83,36.61-23.33,11.74-2.11,21.16,7.28,29.49,12.43Z" style="fill: #efd27b;"/>
        <path d="M439.54,469.88c-13.59,11.9-24.91-10.84-32.53-21.78,8.28,3.26,12.9,11.15,21.81,12.01,11.71,1.13,20.28-7.17,29.36-14.12-4.14,9.6-11.03,17.23-18.64,23.9Z" style="fill: #aa7244;"/>
      </g>
      <!-- Oeil gauche — animation de clignement -->
      <g id="owl-eye-left">
        <path d="M337.76,399.9c-28.4,36.16-74.62,54.14-119.52,35.92-23.55-9.55-46.6-28.11-58.52-50.93-14.48-27.72-11.15-62.98.75-90.1-6.46-7.63-14.35-15.17-13.91-25.48,8.12,2.75,17.69,6.69,24.31,1.5,14.13-11.07,27.17-23.93,44.26-27.46-18.82,45.43-6.17,25.69-44.49,44.43,2.62.92,5.64,3.26,8.13,3.78-7.81,9.49-10.16,21.1-12.69,32.47-4.88,21.95-1.94,47.05,12.48,64.78,1.38,1.69,3.27,5.08,4.56,6.95,20.91,30.39,61.11,41.71,97.41,31.58,34.62-9.66,58.76-40.43,62.9-75.93,4.38-37.55-11.35-75.64-48.4-93.28-21.66-10.31-47.8-10.97-69.65-2.55-1.69-2.26-3.64-5.03-4.04-8.1-.21-2.02-1.08-4.91.53-6.56,1.56-1.6,4.58-1.87,7.31-2.44,31.95-6.71,64.34-.65,90.1,20.31,22.87,18.61,36.12,47.51,37.12,79.31.76,24.28-8.93,41.98-18.64,61.8Z" style="fill: #3d2a2f;"/>
        <path d="M221.34,247.49c.39,3.08,2.35,5.84,4.04,8.1,1.17,6.99,1.9,15.73,8.54,19.54,9.94,5.7,22.03,7.72,33.94,13.17-48.91,16.23-31.23,5.83-50.74,50.05-6.62-12.7-7.16-27.12-15.7-35.82-6.06-6.18-14.29-9.21-22.66-10.96-2.49-.52-5.51-2.86-8.13-3.78,38.31-18.74,25.66,1,44.49-44.43,1.41-.29,2.95-1.95,3.35-.21.46,2.01,2.68,2.92,2.87,4.34Z" style="fill: #fafbf8;"/>
        <path d="M343.43,351.42c-4.14,35.5-28.28,66.27-62.9,75.93-36.3,10.13-76.5-1.19-97.41-31.58,3.07.75,6.43,2.02,10.56,1.94,9.06-.17,14.1-7.68,12.84-15.34,3.32,7.35,11.25,13.17,19.04,17.42,21.19,11.56,46.27,10.98,68.9-1.43,16.85-9.25,31.33-28.7,35.29-50.22,4.75.54,8.72,4.04,13.68,3.28Z" style="fill: #e8c362;"/>
        <path d="M343.43,351.42c-4.96.77-8.93-2.74-13.68-3.28,2.4-13.02-1.76-29.01-7.21-41.34-13.2-29.89-44.51-43.25-75.96-38.2-5.64.91-11.36,1.18-12.66,6.54-6.65-3.81-7.37-12.55-8.54-19.54,21.85-8.43,47.99-7.76,69.65,2.55,37.05,17.63,52.78,55.73,48.4,93.28Z" style="fill: #b47841;"/>
        <path d="M189.68,331.76c-1.12,12.96,3.67,26.47,8.15,38.33-5.46.11-11.17.91-14.95,4.9-3.53,3.72-3.73,9-4.33,13.84-14.42-17.73-17.35-42.83-12.48-64.78,7.52,3.64,15.15,7.55,23.6,7.72Z" style="fill: #e6be62;"/>
        <path d="M201.43,302.53c-5.5,7.91-10.86,19.03-11.74,29.23-8.46-.17-16.08-4.08-23.6-7.72,2.53-11.37,4.87-22.99,12.69-32.47,8.37,1.75,16.6,4.79,22.66,10.96Z" style="fill: #b68146;"/>
        <!-- Reflet brillant oeil gauche -->
        <path id="owl-shine-left" d="M197.84,370.08c3.65,3.42,6.57,7.64,8.67,12.29,1.26,7.66-3.77,15.17-12.84,15.34-4.12.08-7.48-1.19-10.56-1.94-1.29-1.87-3.18-5.26-4.56-6.95.6-4.83.8-10.11,4.33-13.84,3.79-3.99,9.5-4.79,14.95-4.9Z" style="fill: #f9faf4;"/>
        <path d="M329.75,348.14c-3.96,21.52-18.44,40.97-35.29,50.22-22.63,12.42-47.71,13-68.9,1.43-7.79-4.25-15.72-10.07-19.04-17.42-2.1-4.65-5.02-8.87-8.67-12.29-4.48-11.86-9.27-25.37-8.15-38.33.88-10.2,6.25-21.31,11.74-29.23,8.54,8.71,9.07,23.12,15.7,35.82,19.5-44.22,1.82-33.82,50.74-50.05-11.91-5.44-24-7.47-33.94-13.17,1.3-5.36,7.02-5.63,12.66-6.54,31.46-5.05,62.76,8.3,75.96,38.2,5.44,12.33,9.6,28.32,7.21,41.34Z" style="fill: #603a25;"/>
      </g>
      <!-- Oeil droit — animation de clignement -->
      <g id="owl-eye-right">
        <path d="M707.81,355.45c-3.95-.99-7.72-2.58-11.01-4.99.84-8.16,1.02-16.63-.08-24.82-1.79-13.28-6.05-26.63-14.52-37.7-28.48-37.2-84.25-56.84-118.81-28.47l-16.34,13.41c-8.26,6.78-11.66,12.68-17.23,20.72-13.19,19.03-15.32,42.95-10.93,65.77,6.28,32.71,31,59.43,61.49,68.12,34.4,9.8,72.09.69,93.08-26.12.55-.7,1.33-1.26,1.94-1.91,8.9-9.45,16.2-20.87,18.99-33.61,3.63-1.54,6.66-3.61,10.66-4.29,9.08-3.62-5.7,25.87-5.8,28.83-5.74,2.04-9.12,7.82-13.07,12.71-37.17,46.03-97.83,51.71-144.22,17.72-24.82-24.64-40.2-55.07-36.79-91.39,3.01-32.07,21.15-63.2,51.46-80.34,44.4-25.11,98.72-14.85,133.55,21.68,5.46,5.72,16.54-.27,22.74.05-.26,9.66-6.92,13.8-11.84,22.65,9.37,15.81,12.8,47.4,6.73,61.99Z" style="fill: #3c2a31;"/>
        <path d="M675.61,315.26c6.06,17.21,2.91,31.54,21.2,35.2,3.29,2.42,7.06,4,11.01,4.99-.68,1.63.54,5.54-2.76,6.1-4,.69-7.03,2.75-10.66,4.29-13,5.51-15.12,20.84-18.99,33.61-.62.65-1.39,1.21-1.94,1.91-5.05-8.05-4.41-22.15-12.82-31.38-5.98-6.56-16.16-6.21-25.09-11.1,25.99-12.08,27.95-5.46,34.16-37.55-.39,2.02,2.13-9.15,4.31-7.37l1.6,1.3Z" style="fill: #f9faf6;"/>
        <path d="M534.12,351.06c3.98,26.45,24.69,47.42,48.79,54.02,28.62,7.84,56.76-1.43,74.31-23.79,2.99-3.81,4.56-7.44,3.42-11.3,8.41,9.23,7.76,23.33,12.82,31.38-20.99,26.81-58.68,35.93-93.08,26.12-30.49-8.69-55.21-35.41-61.49-68.12-.37-4.08,1.4-7.02,5.88-8.56,2.7-.93,6.46-2.62,9.35.24Z" style="fill: #e8c466;"/>
        <path d="M696.72,325.64c-6.13-4.94-15.67-5.96-21.11-10.38l-1.6-1.3c-2.18-1.78-4.7,9.39-4.31,7.37-.5-14.77-9.17-28.14-21.36-38.65-20.83-17.95-52.39-20.56-76.09-8.09-8.34-1.86-16.8-3.81-25.21-1.71l16.34-13.41c34.57-28.37,90.33-8.73,118.81,28.47,8.48,11.07,12.73,24.42,14.52,37.7Z" style="fill: #b47944;"/>
        <path d="M572.26,274.6c13.64,10.52,18.28,28.7,7.68,42.8-10.72,14.25-30.72,13.37-44.32,2.16-1.91-7.86-10.08-17.15-5.8-25.96,5.57-8.03,8.97-13.94,17.23-20.72,8.41-2.1,16.87-.15,25.21,1.71Z" style="fill: #fbfbf7;"/>
        <path d="M535.62,319.56c-3.3,10.39-3.1,20.85-1.5,31.5-2.9-2.86-6.66-1.17-9.35-.24-4.48,1.54-6.25,4.47-5.88,8.56-4.39-22.83-2.26-46.74,10.93-65.77-4.28,8.82,3.89,18.11,5.8,25.96Z" style="fill: #b97f43;"/>
        <path d="M696.72,325.64c1.1,8.19.92,16.66.08,24.82-18.28-3.66-15.14-18-21.2-35.2,5.44,4.43,14.98,5.44,21.11,10.38Z" style="fill: #e2bc66;"/>
        <!-- Reflet brillant oeil droit -->
        <path id="owl-shine-right" d="M694.39,365.85c-2.8,12.73-10.1,24.16-18.99,33.61,3.87-12.77,6-28.1,18.99-33.61Z" style="fill: #e6cf7f;"/>
        <path d="M669.7,321.33c-6.21,32.09-8.17,25.47-34.16,37.55,8.94,4.9,19.12,4.54,25.09,11.1,1.14,3.86-.43,7.49-3.42,11.3-17.55,22.36-45.68,31.64-74.31,23.79-24.1-6.6-44.81-27.57-48.79-54.02-1.6-10.65-1.81-21.11,1.5-31.5,13.6,11.21,33.6,12.09,44.32-2.16,10.6-14.1,5.96-32.28-7.68-42.8,23.69-12.47,55.26-9.86,76.09,8.09,12.19,10.5,20.86,23.88,21.36,38.65Z" style="fill: #613b26;"/>
      </g>
    </g>
  </g>
</svg>
